<svg width="68" height="84" viewBox="0 0 68 84" fill="none" xmlns="http://www.w3.org/2000/svg">
<path d="M63.1667 75.3333H4.83335C3.72828 75.3333 2.66847 75.7723 1.88707 76.5537C1.10567 77.3351 0.666682 78.3949 0.666682 79.5C0.666682 80.605 1.10567 81.6649 1.88707 82.4463C2.66847 83.2277 3.72828 83.6666 4.83335 83.6666H63.1667C64.2717 83.6666 65.3316 83.2277 66.113 82.4463C66.8944 81.6649 67.3333 80.605 67.3333 79.5C67.3333 78.3949 66.8944 77.3351 66.113 76.5537C65.3316 75.7723 64.2717 75.3333 63.1667 75.3333ZM4.83335 67H5.20835L22.5833 65.4166C24.4867 65.227 26.2668 64.3884 27.625 63.0416L65.125 25.5416C66.5805 24.004 67.3671 21.9521 67.3124 19.8355C67.2577 17.719 66.3663 15.7104 64.8333 14.25L53.4167 2.83331C51.9266 1.43371 49.9741 0.630639 47.9306 0.576861C45.887 0.523083 43.8949 1.22235 42.3333 2.54164L4.83335 40.0416C3.48654 41.3998 2.64795 43.18 2.45835 45.0833L0.666682 62.4583C0.610553 63.0686 0.689742 63.6837 0.898604 64.2599C1.10747 64.8361 1.44086 65.3591 1.87502 65.7916C2.26435 66.1778 2.72608 66.4833 3.23374 66.6907C3.7414 66.898 4.28499 67.0031 4.83335 67ZM47.625 8.66664L59 20.0416L50.6667 28.1666L39.5 17L47.625 8.66664Z" fill="black"/>
</svg>
