<svg width="2829" height="2829" viewBox="0 0 2829 2829" fill="none" xmlns="http://www.w3.org/2000/svg">
<rect x="1312" y="414" width="204" height="662" rx="102" fill="#9ECD16"/>
<rect x="414" y="1498" width="204" height="662" rx="102" transform="rotate(-90 414 1498)" fill="#0085FF"/>
<rect x="1752" y="1498" width="204" height="662" rx="102" transform="rotate(-90 1752 1498)" fill="#0085FF"/>
<rect x="1312" y="1752" width="204" height="662" rx="102" fill="#FF4400"/>
<rect x="634.982" y="779.231" width="204" height="662" rx="102" transform="rotate(-45 634.982 779.231)" fill="#FF4400"/>
<rect x="766.504" y="2180.72" width="204" height="662" rx="102" transform="rotate(-135 766.504 2180.72)" fill="#9ECD16"/>
<rect x="1712.61" y="1234.61" width="204" height="662" rx="102" transform="rotate(-135 1712.61 1234.61)" fill="#FF4400"/>
<rect x="1581.09" y="1725.34" width="204" height="662" rx="102" transform="rotate(-45 1581.09 1725.34)" fill="#9ECD16"/>
</svg>
