<svg width="241" height="128" viewBox="0 0 241 128" fill="none" xmlns="http://www.w3.org/2000/svg">
<path d="M21.8223 106.178H218.223C224.224 106.178 229.134 111.088 229.134 117.089C229.134 123.09 224.224 128 218.223 128H21.8223C15.8212 128 10.9111 123.09 10.9111 117.089C10.9111 111.088 15.8212 106.178 21.8223 106.178ZM16.3667 57.8413C20.2947 60.1327 25.3139 58.7142 27.6052 54.7862L32.7334 45.8391L37.9708 54.8953C40.2621 58.8233 45.2813 60.1327 49.2093 57.9504C53.1373 55.6591 54.4466 50.7491 52.2644 46.8211L46.9179 37.6557H57.2835C61.7571 37.6557 65.4669 33.9459 65.4669 29.4723C65.4669 24.9988 61.7571 21.289 57.2835 21.289H46.9179L52.0462 12.3418C54.3375 8.41383 53.0282 3.3947 49.1002 1.10336C47.1988 0.0449485 44.9589 -0.227984 42.8589 0.34287C40.759 0.913724 38.9655 2.28311 37.8617 4.15849L32.7334 13.1056L27.6052 4.15849C26.5013 2.28311 24.7079 0.913724 22.608 0.34287C20.508 -0.227984 18.2681 0.0449485 16.3667 1.10336C12.4387 3.3947 11.1294 8.41383 13.4207 12.3418L18.549 21.289H8.18336C3.70979 21.289 0 24.9988 0 29.4723C0 33.9459 3.70979 37.6557 8.18336 37.6557H18.549L13.3116 46.712C11.1294 50.64 12.4387 55.6591 16.3667 57.8413ZM103.656 57.8413C107.584 60.1327 112.603 58.7142 114.894 54.7862L120.023 45.8391L125.26 54.8953C127.551 58.8233 132.57 60.1327 136.498 57.9504C140.426 55.6591 141.736 50.7491 139.554 46.8211L134.316 37.7648H144.682C149.155 37.7648 152.865 34.055 152.865 29.5815C152.865 25.1079 149.155 21.3981 144.682 21.3981H134.207L139.335 12.451C140.414 10.5652 140.71 8.33124 140.159 6.22956C139.609 4.12787 138.255 2.32636 136.389 1.21248C135.465 0.675022 134.444 0.324883 133.385 0.182066C132.325 0.039249 131.248 0.106551 130.214 0.380123C129.181 0.653694 128.211 1.12818 127.361 1.77648C126.511 2.42478 125.797 3.23419 125.26 4.15849L120.023 13.1056L114.894 4.15849C114.361 3.22988 113.649 2.41623 112.8 1.76464C111.95 1.11305 110.98 0.636464 109.945 0.362475C108.91 0.0884848 107.83 0.0225363 106.77 0.16844C105.709 0.314343 104.688 0.669203 103.765 1.21248C99.837 3.50382 98.5277 8.52294 100.819 12.451L105.947 21.3981H95.4725C94.4031 21.3836 93.3414 21.5818 92.3491 21.9811C91.3569 22.3804 90.4539 22.9729 89.6925 23.7241C88.9312 24.4753 88.3266 25.3703 87.9141 26.3571C87.5015 27.3438 87.2891 28.4028 87.2892 29.4723C87.2892 33.9459 90.999 37.6557 95.4725 37.6557H105.838L100.601 46.712C98.4185 50.64 99.7279 55.6591 103.656 57.8413V57.8413ZM240.045 29.4723C240.045 24.9988 236.335 21.289 231.862 21.289H221.496L226.625 12.3418C227.704 10.4561 228 8.22213 227.449 6.12045C226.898 4.01876 225.544 2.21724 223.679 1.10336C222.754 0.565908 221.733 0.215774 220.674 0.0729573C219.614 -0.0698597 218.537 -0.00256291 217.504 0.271009C216.47 0.54458 215.501 1.01906 214.651 1.66736C213.8 2.31566 213.086 3.12508 212.549 4.04937L207.312 13.1056L202.184 4.15849C201.651 3.22988 200.939 2.41623 200.089 1.76464C199.239 1.11305 198.269 0.636464 197.234 0.362475C196.199 0.0884848 195.12 0.0225363 194.059 0.16844C192.998 0.314343 191.977 0.669203 191.054 1.21248C187.126 3.50382 185.817 8.52294 188.108 12.451L193.236 21.3981H182.871C181.793 21.3734 180.722 21.5638 179.719 21.9581C178.716 22.3524 177.802 22.9427 177.03 23.6945C176.258 24.4463 175.643 25.3445 175.222 26.3366C174.801 27.3287 174.582 28.3947 174.578 29.4723C174.578 33.9459 178.288 37.6557 182.762 37.6557H193.127L187.89 46.712C187.348 47.6404 186.997 48.6677 186.858 49.7335C186.718 50.7994 186.793 51.8824 187.077 52.919C187.362 53.9557 187.851 54.925 188.515 55.7703C189.179 56.6155 190.005 57.3196 190.945 57.8413C194.873 60.1327 199.892 58.7142 202.184 54.7862L207.312 45.8391L212.549 54.8953C214.84 58.8233 219.86 60.1327 223.788 57.9504C227.716 55.6591 229.025 50.7491 226.843 46.8211L221.605 37.7648H231.971C236.335 37.6557 240.045 33.9459 240.045 29.4723Z" fill="white"/>
</svg>
