<svg width="91" height="50" viewBox="0 0 91 50" fill="none" xmlns="http://www.w3.org/2000/svg">
<path d="M52.3438 10.9375V39.0625C52.3438 39.6841 52.0968 40.2802 51.6573 40.7198C51.2177 41.1593 50.6216 41.4062 50 41.4062C49.3784 41.4062 48.7823 41.1593 48.3427 40.7198C47.9032 40.2802 47.6562 39.6841 47.6562 39.0625V10.9375C47.6562 10.3159 47.9032 9.71976 48.3427 9.28022C48.7823 8.84068 49.3784 8.59375 50 8.59375C50.6216 8.59375 51.2177 8.84068 51.6573 9.28022C52.0968 9.71976 52.3438 10.3159 52.3438 10.9375V10.9375ZM68.4961 20.8398L65.625 21.7773V18.75C65.625 18.1284 65.3781 17.5323 64.9385 17.0927C64.499 16.6532 63.9029 16.4062 63.2812 16.4062C62.6596 16.4062 62.0635 16.6532 61.624 17.0927C61.1844 17.5323 60.9375 18.1284 60.9375 18.75V21.7773L58.0664 20.8398C57.7696 20.7271 57.453 20.6757 57.1357 20.689C56.8185 20.7023 56.5073 20.7799 56.2209 20.9172C55.9346 21.0544 55.6791 21.2484 55.47 21.4873C55.261 21.7263 55.1026 22.0052 55.0046 22.3072C54.9066 22.6092 54.8709 22.928 54.8998 23.2442C54.9287 23.5604 55.0216 23.8674 55.1728 24.1466C55.324 24.4258 55.5303 24.6714 55.7792 24.8685C56.0282 25.0655 56.3146 25.21 56.6211 25.293L59.4922 26.2305L57.7148 28.6719C57.3511 29.1757 57.2004 29.8026 57.2954 30.4167C57.3905 31.0308 57.7236 31.5828 58.2227 31.9531C58.6284 32.2406 59.1122 32.3973 59.6094 32.4023C59.9805 32.4041 60.3465 32.3163 60.6763 32.1462C61.0062 31.9762 61.2901 31.7291 61.5039 31.4258L63.2812 28.9844L65.0586 31.4258C65.2724 31.7291 65.5563 31.9762 65.8862 32.1462C66.216 32.3163 66.582 32.4041 66.9531 32.4023C67.4503 32.3973 67.9341 32.2406 68.3398 31.9531C68.8389 31.5828 69.172 31.0308 69.2671 30.4167C69.3621 29.8026 69.2114 29.1757 68.8477 28.6719L67.0703 26.2305L69.9414 25.293C70.5038 25.0793 70.9624 24.6575 71.2224 24.115C71.4824 23.5725 71.5238 22.9508 71.3381 22.3785C71.1524 21.8063 70.7538 21.3274 70.2247 21.041C69.6957 20.7546 69.0768 20.6826 68.4961 20.8398V20.8398ZM90.1953 22.3438C90.003 21.7537 89.5845 21.264 89.0316 20.982C88.4788 20.7001 87.8366 20.649 87.2461 20.8398L84.375 21.7773V18.75C84.375 18.1284 84.1281 17.5323 83.6885 17.0927C83.249 16.6532 82.6529 16.4062 82.0312 16.4062C81.4096 16.4062 80.8135 16.6532 80.374 17.0927C79.9344 17.5323 79.6875 18.1284 79.6875 18.75V21.7773L76.8164 20.8398C76.5196 20.7271 76.203 20.6757 75.8857 20.689C75.5685 20.7023 75.2573 20.7799 74.9709 20.9172C74.6846 21.0544 74.4291 21.2484 74.22 21.4873C74.011 21.7263 73.8526 22.0052 73.7546 22.3072C73.6566 22.6092 73.6209 22.928 73.6498 23.2442C73.6788 23.5604 73.7716 23.8674 73.9228 24.1466C74.074 24.4258 74.2803 24.6714 74.5292 24.8685C74.7782 25.0655 75.0646 25.21 75.3711 25.293L78.2422 26.2305L76.4648 28.6719C76.1011 29.1757 75.9504 29.8026 76.0454 30.4167C76.1405 31.0308 76.4736 31.5828 76.9727 31.9531C77.3784 32.2406 77.8622 32.3973 78.3594 32.4023C78.7305 32.4041 79.0965 32.3163 79.4263 32.1462C79.7562 31.9762 80.0401 31.7291 80.2539 31.4258L82.0312 28.9844L83.8086 31.4258C84.0224 31.7291 84.3063 31.9762 84.6362 32.1462C84.966 32.3163 85.332 32.4041 85.7031 32.4023C86.2003 32.3973 86.6841 32.2406 87.0898 31.9531C87.5889 31.5828 87.922 31.0308 88.0171 30.4167C88.1121 29.8026 87.9614 29.1757 87.5977 28.6719L85.8203 26.2305L88.6914 25.293C88.9851 25.2 89.2573 25.0496 89.4924 24.8504C89.7274 24.6513 89.9205 24.4074 90.0604 24.133C90.2003 23.8586 90.2843 23.5591 90.3075 23.2519C90.3306 22.9448 90.2925 22.6361 90.1953 22.3438V22.3438Z" fill="white"/>
<path fill-rule="evenodd" clip-rule="evenodd" d="M21.875 0C19.7188 0 16.1156 0.828125 12.725 1.75C9.25627 2.6875 5.75939 3.79687 3.70314 4.46875C2.84343 4.75266 2.08124 5.27333 1.50413 5.97094C0.927026 6.66855 0.558415 7.51481 0.440642 8.4125C-1.42186 22.4031 2.90002 32.7719 8.14377 39.6313C10.3675 42.5655 13.0189 45.1495 16.0094 47.2969C17.2156 48.15 18.3344 48.8031 19.2844 49.25C20.1594 49.6625 21.1 50 21.875 50C22.65 50 23.5875 49.6625 24.4656 49.25C25.6109 48.6933 26.7065 48.0399 27.7406 47.2969C30.7312 45.1495 33.3826 42.5656 35.6063 39.6313C40.85 32.7719 45.1719 22.4031 43.3094 8.4125C43.1918 7.51438 42.8233 6.66763 42.2462 5.96948C41.6691 5.27133 40.9068 4.75009 40.0469 4.46563C37.0619 3.48692 34.0537 2.5804 31.025 1.74688C27.6344 0.83125 24.0313 0 21.875 0ZM21.875 15.625C22.982 15.6234 24.0539 16.0135 24.9008 16.7264C25.7476 17.4393 26.3149 18.429 26.502 19.52C26.6892 20.6111 26.4841 21.7332 25.9232 22.6876C25.3623 23.6419 24.4818 24.367 23.4375 24.7344L24.6406 30.9531C24.6844 31.1793 24.6776 31.4124 24.6208 31.6356C24.5639 31.8589 24.4584 32.0668 24.3117 32.2445C24.1651 32.4222 23.981 32.5653 23.7726 32.6635C23.5642 32.7617 23.3366 32.8125 23.1063 32.8125H20.6438C20.4136 32.8121 20.1865 32.7609 19.9784 32.6625C19.7704 32.5641 19.5867 32.4209 19.4404 32.2433C19.2941 32.0657 19.1889 31.8579 19.1322 31.6349C19.0755 31.4118 19.0688 31.1791 19.1125 30.9531L20.3125 24.7344C19.2682 24.367 18.3877 23.6419 17.8268 22.6876C17.2659 21.7332 17.0609 20.6111 17.248 19.52C17.4352 18.429 18.0024 17.4393 18.8493 16.7264C19.6962 16.0135 20.768 15.6234 21.875 15.625V15.625Z" fill="white"/>
</svg>
