<svg width="600" height="200" viewBox="0 0 600 200" fill="none" xmlns="http://www.w3.org/2000/svg">
<rect x="5" y="5" width="590" height="190" rx="18" stroke="#0055ff" stroke-width="10"/>
<rect x="325" y="25" width="250" height="150" rx="23" fill="#0055ff"/>
<path d="M444.336 100.398C444.336 105.971 443.398 110.841 441.523 115.008C439.648 119.148 436.992 122.312 433.555 124.5C430.117 126.688 426.107 127.781 421.523 127.781C417.044 127.781 413.073 126.688 409.609 124.5C406.146 122.286 403.451 119.148 401.523 115.086C399.622 110.997 398.646 106.271 398.594 100.906V96.8047C398.594 91.3359 399.544 86.5052 401.445 82.3125C403.346 78.1198 406.029 74.9167 409.492 72.7031C412.982 70.4635 416.966 69.3438 421.445 69.3438C426.003 69.3438 430.013 70.4505 433.477 72.6641C436.966 74.8516 439.648 78.0417 441.523 82.2344C443.398 86.401 444.336 91.2578 444.336 96.8047V100.398ZM436.875 96.7266C436.875 89.9818 435.521 84.8125 432.812 81.2188C430.104 77.599 426.315 75.7891 421.445 75.7891C416.706 75.7891 412.969 77.599 410.234 81.2188C407.526 84.8125 406.133 89.8125 406.055 96.2188V100.398C406.055 106.935 407.422 112.078 410.156 115.828C412.917 119.552 416.706 121.414 421.523 121.414C426.367 121.414 430.117 119.656 432.773 116.141C435.43 112.599 436.797 107.534 436.875 100.945V96.7266ZM499.297 127H491.758L463.125 83.1719V127H455.586V70.125H463.125L491.836 114.148V70.125H499.297V127Z" fill="white"/>
</svg>
