<svg width="675" height="200" viewBox="0 0 675 200" fill="none" xmlns="http://www.w3.org/2000/svg">
<rect x="5" y="5" width="665" height="190" rx="18" stroke="#005BC6" stroke-width="10"/>
<rect x="24.75" y="25" width="281.25" height="150" rx="23" fill="#005BC6"/>
<path d="M144.008 96.7656V100.359C144.008 104.63 143.474 108.458 142.406 111.844C141.339 115.229 139.802 118.107 137.797 120.477C135.792 122.846 133.383 124.656 130.57 125.906C127.784 127.156 124.659 127.781 121.195 127.781C117.836 127.781 114.75 127.156 111.938 125.906C109.151 124.656 106.729 122.846 104.672 120.477C102.641 118.107 101.065 115.229 99.9453 111.844C98.8255 108.458 98.2656 104.63 98.2656 100.359V96.7656C98.2656 92.4948 98.8125 88.6797 99.9062 85.3203C101.026 81.9349 102.602 79.0573 104.633 76.6875C106.664 74.2917 109.073 72.4688 111.859 71.2188C114.672 69.9688 117.758 69.3438 121.117 69.3438C124.581 69.3438 127.706 69.9688 130.492 71.2188C133.305 72.4688 135.714 74.2917 137.719 76.6875C139.75 79.0573 141.299 81.9349 142.367 85.3203C143.461 88.6797 144.008 92.4948 144.008 96.7656ZM136.547 100.359V96.6875C136.547 93.3021 136.195 90.3073 135.492 87.7031C134.815 85.099 133.812 82.9115 132.484 81.1406C131.156 79.3698 129.529 78.0286 127.602 77.1172C125.701 76.2057 123.539 75.75 121.117 75.75C118.773 75.75 116.651 76.2057 114.75 77.1172C112.875 78.0286 111.26 79.3698 109.906 81.1406C108.578 82.9115 107.549 85.099 106.82 87.7031C106.091 90.3073 105.727 93.3021 105.727 96.6875V100.359C105.727 103.771 106.091 106.792 106.82 109.422C107.549 112.026 108.591 114.227 109.945 116.023C111.326 117.794 112.953 119.135 114.828 120.047C116.729 120.958 118.852 121.414 121.195 121.414C123.643 121.414 125.818 120.958 127.719 120.047C129.62 119.135 131.221 117.794 132.523 116.023C133.852 114.227 134.854 112.026 135.531 109.422C136.208 106.792 136.547 103.771 136.547 100.359ZM162.836 70.125V127H155.297V70.125H162.836ZM186.664 95.7109V101.883H161.195V95.7109H186.664ZM190.531 70.125V76.2969H161.195V70.125H190.531ZM207.055 70.125V127H199.516V70.125H207.055ZM230.883 95.7109V101.883H205.414V95.7109H230.883ZM234.75 70.125V76.2969H205.414V70.125H234.75Z" fill="white"/>
</svg>
