<svg width="600" height="200" viewBox="0 0 600 200" fill="none" xmlns="http://www.w3.org/2000/svg">
<rect x="5" y="5" width="590" height="190" rx="18" stroke="#FF4400" stroke-width="10"/>
<rect x="22" y="25" width="250" height="150" rx="23" fill="#FF4400"/>
<path d="M125.633 100.398C125.633 105.971 124.695 110.841 122.82 115.008C120.945 119.148 118.289 122.312 114.852 124.5C111.414 126.688 107.404 127.781 102.82 127.781C98.3411 127.781 94.3698 126.688 90.9062 124.5C87.4427 122.286 84.7474 119.148 82.8203 115.086C80.9193 110.997 79.9427 106.271 79.8906 100.906V96.8047C79.8906 91.3359 80.8411 86.5052 82.7422 82.3125C84.6432 78.1198 87.3255 74.9167 90.7891 72.7031C94.2786 70.4635 98.263 69.3438 102.742 69.3438C107.299 69.3438 111.31 70.4505 114.773 72.6641C118.263 74.8516 120.945 78.0417 122.82 82.2344C124.695 86.401 125.633 91.2578 125.633 96.8047V100.398ZM118.172 96.7266C118.172 89.9818 116.818 84.8125 114.109 81.2188C111.401 77.599 107.612 75.7891 102.742 75.7891C98.0026 75.7891 94.2656 77.599 91.5312 81.2188C88.8229 84.8125 87.4297 89.8125 87.3516 96.2188V100.398C87.3516 106.935 88.7188 112.078 91.4531 115.828C94.2135 119.552 98.0026 121.414 102.82 121.414C107.664 121.414 111.414 119.656 114.07 116.141C116.727 112.599 118.094 107.534 118.172 100.945V96.7266ZM168.25 101.883H144.383V127H136.883V70.125H172.117V76.2969H144.383V95.75H168.25V101.883ZM212.469 101.883H188.602V127H181.102V70.125H216.336V76.2969H188.602V95.75H212.469V101.883Z" fill="white"/>
</svg>
