<svg width="675" height="200" viewBox="0 0 675 200" fill="none" xmlns="http://www.w3.org/2000/svg">
<rect x="5" y="5" width="665" height="190" rx="18" stroke="#9ECD16" stroke-width="10"/>
<rect x="365.625" y="25" width="281.25" height="150" rx="23" fill="#9ECD16"/>
<path d="M500.547 96.7656V100.359C500.547 104.63 500.013 108.458 498.945 111.844C497.878 115.229 496.341 118.107 494.336 120.477C492.331 122.846 489.922 124.656 487.109 125.906C484.323 127.156 481.198 127.781 477.734 127.781C474.375 127.781 471.289 127.156 468.477 125.906C465.69 124.656 463.268 122.846 461.211 120.477C459.18 118.107 457.604 115.229 456.484 111.844C455.365 108.458 454.805 104.63 454.805 100.359V96.7656C454.805 92.4948 455.352 88.6797 456.445 85.3203C457.565 81.9349 459.141 79.0573 461.172 76.6875C463.203 74.2917 465.612 72.4688 468.398 71.2188C471.211 69.9688 474.297 69.3438 477.656 69.3438C481.12 69.3438 484.245 69.9688 487.031 71.2188C489.844 72.4688 492.253 74.2917 494.258 76.6875C496.289 79.0573 497.839 81.9349 498.906 85.3203C500 88.6797 500.547 92.4948 500.547 96.7656ZM493.086 100.359V96.6875C493.086 93.3021 492.734 90.3073 492.031 87.7031C491.354 85.099 490.352 82.9115 489.023 81.1406C487.695 79.3698 486.068 78.0286 484.141 77.1172C482.24 76.2057 480.078 75.75 477.656 75.75C475.312 75.75 473.19 76.2057 471.289 77.1172C469.414 78.0286 467.799 79.3698 466.445 81.1406C465.117 82.9115 464.089 85.099 463.359 87.7031C462.63 90.3073 462.266 93.3021 462.266 96.6875V100.359C462.266 103.771 462.63 106.792 463.359 109.422C464.089 112.026 465.13 114.227 466.484 116.023C467.865 117.794 469.492 119.135 471.367 120.047C473.268 120.958 475.391 121.414 477.734 121.414C480.182 121.414 482.357 120.958 484.258 120.047C486.159 119.135 487.76 117.794 489.062 116.023C490.391 114.227 491.393 112.026 492.07 109.422C492.747 106.792 493.086 103.771 493.086 100.359ZM555.586 70.125V127H548.008L519.375 83.1328V127H511.836V70.125H519.375L548.125 114.109V70.125H555.586Z" fill="white"/>
</svg>
